<?xml version="1.0" encoding="utf-8"?>
<!-- Generator: Adobe Illustrator 23.1.1, SVG Export Plug-In . SVG Version: 6.00 Build 0)  -->
<svg version="1.1" id="Layer_1" xmlns="http://www.w3.org/2000/svg" xmlns:xlink="http://www.w3.org/1999/xlink" x="0px" y="0px"
	 viewBox="0 0 1020 172.4" style="enable-background:new 0 0 1020 172.4;" xml:space="preserve">
<style type="text/css">
	.st0{fill:#FFFFFF;}
	.st1{fill:#FC7E00;}
	.st2{display:none;}
	.st3{display:inline;}
	.st4{fill:none;stroke:#FF00FF;stroke-width:0.2;stroke-miterlimit:10;}
</style>
<g id="ARTWORK">
	<g>
		<g>
			<g>
				<path class="st0" d="M37.4,135c-5.8-5.8-8.9-13.4-8.9-21.6s3.2-15.8,8.9-21.6c5.8-5.8,13.4-8.9,21.5-8.9h76.2
					c6.4,0,12.4-2.5,16.9-7s7-10.5,7-16.9s-2.5-12.4-7-16.9s-10.5-7-16.9-7h-42l-6.9,18.5h49c3,0,5.4,2.4,5.4,5.4s-2.4,5.4-5.4,5.4
					H59c-6.6,0-13,1.3-19.1,3.9c-5.8,2.5-11.1,6-15.6,10.5s-8,9.7-10.5,15.6c-2.6,6.1-3.9,12.5-3.9,19.1s1.3,13,3.9,19.1
					c2.5,5.8,6,11.1,10.5,15.6s9.7,8,15.6,10.5c6,2.6,12.5,3.9,19.1,3.9h32.7l6.9-18.5H59C50.8,143.9,43.2,140.7,37.4,135z"/>
				<path class="st0" d="M180.3,39.9c-2.5-5.8-6-11.1-10.5-15.6s-9.7-8-15.6-10.5c-6.1-2.6-12.5-3.9-19.1-3.9h-32.7l-6.9,18.5h39.6
					c8.1,0,15.8,3.2,21.6,8.9c5.8,5.8,8.9,13.4,8.9,21.5s-3.2,15.8-8.9,21.5c-5.8,5.8-13.4,8.9-21.6,8.9H59c-6.4,0-12.4,2.5-16.9,7
					s-7,10.5-7,16.9s2.5,12.4,7,16.9c4.5,4.5,10.5,7,16.9,7h42l6.9-18.5H59c-3,0-5.4-2.4-5.4-5.4S56,108,59,108h76.2
					c6.6,0,13-1.3,19.1-3.9c5.8-2.5,11.1-6,15.6-10.5s8-9.7,10.5-15.6c2.6-6.1,3.9-12.5,3.9-19.1S182.9,46,180.3,39.9z"/>
			</g>
		</g>
		<g>
			<g>
				<path class="st0" d="M440.8,65.7h-18.3c-19.6,0-36.6,13.5-41.2,32.4l-8.5,43.8h24.9l7.2-37.2c1.6-8.4,9.1-14.6,17.6-14.6h13.7
					L440.8,65.7z"/>
				<path class="st0" d="M219,102.3c4.5-23,24.5-37.8,47.9-37.8c21.3,0,34.7,13,32.3,31h-25.4c-0.1-5.7-4.7-9.8-12.5-9.8
					c-7.4,0-15.1,5.6-17.2,16.6c-2.1,11.5,3.6,19.6,13,19.6c6.8,0,11.5-4.2,13.8-10h26C293,130.2,273,143,254.6,143
					C229.6,143.1,214.5,125.2,219,102.3z"/>
				<g>
					<g>
						<g>
							<g>
								<path class="st0" d="M342.3,64.5c-15.9,0-29,7.7-35,18l19.5,8.9c1.8-4.7,7.5-9.9,13.8-9.9c7.1,0,9.9,3.9,8.7,9.1
									c-0.8,3-3,4.8-6.4,4.8H329c-13.2,0-26.1,6.1-29,21.3c-2.8,13.9,7.3,26.2,21.6,26.2c9.8,0,16.9-4.4,20-10.7l-1.8,9.5h24.8
									l9.2-47.4C377.1,77.2,363.3,64.5,342.3,64.5z M345.4,113.7c-1.2,6.7-7.4,12-13.4,12s-8.9-3.5-8-7.8s4.7-5.9,9.1-5.9h12.7
									L345.4,113.7z"/>
							</g>
						</g>
					</g>
				</g>
				<path class="st0" d="M494,64.5c-9.4,0-16.5,2.9-21.8,7.7l1.2-6.6h-24.9l-18.9,96.7h24.9l4.9-25.1c3.5,3.5,11.3,5.7,19.9,5.7
					c21.1,0,37-14.9,41.4-37.8C525.4,82.2,512.7,64.5,494,64.5z M496.2,103.2c-1.8,10.6-9.7,18.6-18.7,18.9
					c-9.2,0.3-14.6-7.2-12.8-17.7c1.8-10.6,9.8-18.6,18.9-18.9C492.6,85.2,498.1,92.8,496.2,103.2z"/>
				<path class="st0" d="M663.6,65.7h-18.3c-19.6,0-36.6,13.5-41.2,32.4l-8.5,43.8h24.9l7.2-37.2c1.6-8.4,9.1-14.6,17.7-14.6H659
					L663.6,65.7z"/>
				<g>
					<g>
						<g>
							<g>
								<path class="st0" d="M565.2,64.5c-15.9,0-29,7.7-35,18l19.5,8.9c1.8-4.7,7.5-9.9,13.8-9.9c7.1,0,9.9,3.9,8.7,9.1
									c-0.8,3-3,4.8-6.4,4.8H552c-13.2,0-26.1,6.1-29,21.3c-2.8,13.9,7.3,26.2,21.6,26.2c9.8,0,16.9-4.4,20-10.7l-1.8,9.5h24.8
									l9.2-47.4C600,77.2,586.2,64.5,565.2,64.5z M568.3,113.7c-1.2,6.7-7.4,12-13.4,12s-8.9-3.5-8-7.8s4.7-5.9,9.1-5.9h12.7
									L568.3,113.7z"/>
							</g>
						</g>
					</g>
				</g>
				<path class="st0" d="M710.5,115.7h21c-0.5,5.4,4.7,9.1,11.2,9.1c5.6,0,10-2.4,10-6.2c0-10.4-35.5,0.6-35.5-27.5
					c0-15.1,17.4-26.6,34-26.6c18.3,0,30.5,10.6,28.7,25.5h-21.2c0.2-5.1-4.7-8.8-9.8-8.8c-5.3,0-9.1,2.4-9.1,6.8
					c0,10.7,36.5-1.7,36.5,26.3c0,17.1-15.3,28.7-35.8,28.7C721.5,143.1,708.5,131.1,710.5,115.7z"/>
				<path class="st0" d="M692.3,86.3h19.2l3.9-20.6h-19.2l4-20.5h-24.9l-13.3,69c-3.5,17.2,7,27.6,24,27.6h14.7l4.1-20.5h-10.9
					c-4.8,0-7.7-3-6.7-8.3L692.3,86.3z"/>
			</g>
			<g>
				<path class="st1" d="M795.6,128.6l-2.6,13.2h-13.9l2.6-13.2H795.6z"/>
				<g>
					<path class="st1" d="M802.4,114.8c3.1-15.7,16.7-25.8,32.7-25.8c14.5,0,23.7,8.9,22,21.1h-17.3c-0.1-3.9-3.2-6.7-8.5-6.7
						c-5,0-10.3,3.8-11.8,11.3c-1.4,7.8,2.5,13.4,8.9,13.4c4.6,0,7.8-2.9,9.4-6.8h17.7c-2.7,12.5-16.3,21.2-28.8,21.2
						C809.6,142.7,799.3,130.5,802.4,114.8z"/>
					<path class="st1" d="M861.7,120.4c-0.7-17.8,13.4-31.3,31.4-31.3c14.1,0,24.4,9.8,24.8,22.3c0.7,17.8-13.4,31.3-31.4,31.3
						C872.4,142.7,862.1,132.9,861.7,120.4z M900.8,113.4c0-6.1-3.6-9.9-9.3-9.9c-7.9,0-12.8,7.3-12.8,14.8c0,6.1,3.6,9.9,9.3,9.9
						C896,128.2,900.8,120.9,900.8,113.4z"/>
					<path class="st1" d="M930.2,89.9h17l-1.2,6.2c3.9-4.1,9.2-7,15.8-7c7.9,0,12,3.1,13.6,8.8c3.7-4.5,10.8-8.8,18.3-8.8
						c12.4,0,18.1,8.7,15.9,20.3l-6.3,32.5h-17l5.7-29.1c1.1-5.8-1.3-9.5-6.2-9.5c-4.8,0-8.8,3.7-9.9,9.5l-5.7,29.1h-17l5.7-29.1
						c1.1-5.8-1.3-9.5-6.2-9.5c-4.8,0-8.8,3.7-9.9,9.5l-5.7,29.1h-17L930.2,89.9z"/>
				</g>
			</g>
		</g>
	</g>
</g>
<g id="GUIDES" class="st2">
	<g class="st3">
		<line class="st4" x1="218.2" y1="10" x2="218.2" y2="162.4"/>
		<line class="st4" x1="150.1" y1="10" x2="150.1" y2="162.4"/>
		<g>
			<path class="st4" d="M218.2,86.2h-18.3c-19.6,0-36.6,13.5-41.2,32.4l-8.5,43.8H175l7.2-37.2c1.6-8.4,9.1-14.6,17.6-14.6h13.7
				L218.2,86.2z"/>
			<path class="st4" d="M218.2,10h-18.3c-19.6,0-36.6,13.5-41.2,32.4l-8.5,43.8H175l7.2-37.2c1.6-8.4,9.1-14.5,17.6-14.5h13.7
				L218.2,10z"/>
		</g>
		<line class="st4" x1="184.2" y1="10" x2="184.2" y2="162.4"/>
		<line class="st4" x1="10" y1="86.2" x2="218.2" y2="86.2"/>
		<rect x="10" y="10" class="st4" width="1000" height="152.4"/>
		<line class="st4" x1="218.2" y1="141.9" x2="1010" y2="141.9"/>
		<line class="st4" x1="218.2" y1="45.2" x2="1010" y2="45.2"/>
		<line class="st4" x1="218.2" y1="65.7" x2="1010" y2="65.7"/>
		<line class="st4" x1="218.2" y1="89.9" x2="1010" y2="89.9"/>
	</g>
</g>
</svg>
